<svg width="25" height="25" viewBox="0 0 25 25" fill="none" xmlns="http://www.w3.org/2000/svg">
<path d="M21.3542 24.4792H15.1042C14.8163 24.4792 14.5833 24.2462 14.5833 23.9583V17.1875H10.4167V23.9583C10.4167 24.2462 10.1837 24.4792 9.89581 24.4792H3.64583C3.35793 24.4792 3.12498 24.2462 3.12498 23.9583V13.5417C3.12498 13.2538 3.35793 13.0208 3.64583 13.0208C3.93373 13.0208 4.16667 13.2538 4.16667 13.5417V23.4375H9.37502V16.6667C9.37502 16.3788 9.60796 16.1458 9.89586 16.1458H15.1042C15.3921 16.1458 15.6251 16.3788 15.6251 16.6667V23.4375H20.8334V14.0625C20.8334 13.7746 21.0663 13.5417 21.3542 13.5417C21.6421 13.5417 21.8751 13.7746 21.8751 14.0625V23.9584C21.875 24.2462 21.642 24.4792 21.3542 24.4792ZM24.4792 13.5417C24.3459 13.5417 24.2126 13.4908 24.1109 13.3891L12.5 1.77819L0.889077 13.3891C0.685628 13.5925 0.356037 13.5925 0.152587 13.3891C-0.0508624 13.1856 -0.0508624 12.8561 0.152587 12.6526L12.1318 0.673431C12.3352 0.469981 12.6648 0.469981 12.8683 0.673431L24.8474 12.6526C25.0509 12.8561 25.0509 13.1856 24.8474 13.3891C24.7457 13.4908 24.6124 13.5417 24.4792 13.5417ZM20.3125 6.25C20.0246 6.25 19.7917 6.01706 19.7917 5.72916V2.60418H16.6666C16.3787 2.60418 16.1458 2.37124 16.1458 2.08334C16.1458 1.79544 16.3787 1.5625 16.6666 1.5625H20.3125C20.6004 1.5625 20.8333 1.79544 20.8333 2.08334V5.72916C20.8333 6.01706 20.6004 6.25 20.3125 6.25Z" fill="#35A3CB"/>
</svg>
